<?xml version="1.0" standalone="no"?>
<!DOCTYPE svg PUBLIC "-//W3C//DTD SVG 20010904//EN"
 "http://www.w3.org/TR/2001/REC-SVG-20010904/DTD/svg10.dtd">
<svg version="1.0" xmlns="http://www.w3.org/2000/svg"
 width="753.000000pt" height="692.000000pt" viewBox="0 0 753.000000 692.000000"
 preserveAspectRatio="xMidYMid meet">
<rect width="100%" height="100%" fill="white" />
<g transform="translate(0.000000,692.000000) scale(0.100000,-0.100000)"
fill="#000000" stroke="none">
<path d="M3170 5548 c-27 -7 -108 -83 -347 -321 -268 -268 -316 -320 -340
-372 l-28 -60 -3 -1600 c-2 -1445 -1 -1605 14 -1655 29 -100 116 -194 214
-231 48 -18 93 -19 1033 -19 l982 0 60 28 c77 37 120 74 162 139 64 101 61 6
62 1723 1 1698 3 1626 -53 1711 -42 63 -633 642 -669 656 -41 15 -1034 16
-1087 1z m1339 -411 c161 -162 301 -307 312 -323 18 -28 19 -69 19 -1627 0
-1318 -2 -1603 -13 -1630 -20 -47 -64 -95 -111 -120 l-41 -22 -966 0 -966 0
-49 30 c-30 19 -60 49 -79 79 l-30 49 -3 1599 c-2 1416 0 1603 13 1632 8 17
149 165 313 329 l298 297 505 0 506 0 292 -293z"/>
<path d="M3642 5236 c-95 -31 -152 -109 -152 -208 0 -67 38 -133 101 -175 38
-25 51 -28 125 -28 76 0 86 2 126 30 75 54 111 148 88 234 -13 49 -72 118
-116 137 -49 21 -125 25 -172 10z m137 -132 c25 -21 31 -33 31 -67 0 -58 -38
-97 -96 -97 -79 0 -122 64 -89 133 29 61 101 76 154 31z"/>
<path d="M2847 4563 c-38 -4 -38 -4 -35 -46 l3 -42 895 0 895 0 0 45 0 45
-860 1 c-473 0 -877 -1 -898 -3z"/>
<path d="M2810 4165 l0 -45 900 0 900 0 0 45 0 45 -900 0 -900 0 0 -45z"/>
<path d="M2810 3855 l0 -45 900 0 900 0 0 45 0 45 -900 0 -900 0 0 -45z"/>
<path d="M2800 2580 l0 -960 45 0 45 0 0 960 0 960 -45 0 -45 0 0 -960z"/>
<path d="M2960 2745 l0 -795 95 0 95 0 0 795 0 795 -95 0 -95 0 0 -795z"/>
<path d="M3230 2745 l0 -795 60 0 60 0 0 795 0 795 -60 0 -60 0 0 -795z"/>
<path d="M3430 3483 c0 -32 -1 -389 -2 -793 l-1 -735 21 -3 22 -3 0 795 c0
789 0 796 -20 796 -18 0 -20 -7 -20 -57z"/>
<path d="M3540 2745 l0 -796 63 3 62 3 3 793 2 792 -65 0 -65 0 0 -795z"/>
<path d="M3760 2745 l0 -795 55 0 55 0 0 795 0 795 -55 0 -55 0 0 -795z"/>
<path d="M3950 2744 l0 -795 53 3 52 3 3 793 2 792 -55 0 -55 0 0 -796z"/>
<path d="M4130 2745 l0 -795 60 0 60 0 0 795 0 795 -60 0 -60 0 0 -795z"/>
<path d="M4330 2745 l0 -796 63 3 62 3 3 793 2 792 -65 0 -65 0 0 -795z"/>
<path d="M4530 2580 l0 -960 45 0 45 0 0 960 0 960 -45 0 -45 0 0 -960z"/>
<path d="M3263 1793 l-43 -4 0 -85 0 -84 78 0 77 0 -3 90 -3 90 -32 -2 c-18
-1 -51 -3 -74 -5z"/>
<path d="M3523 1792 l-63 -3 0 -84 0 -85 75 0 76 0 -3 87 c-2 48 -7 87 -13 88
-5 0 -38 -1 -72 -3z"/>
<path d="M3780 1778 c0 -13 -3 -53 -6 -90 l-7 -68 82 0 81 0 0 90 0 90 -75 0
c-71 0 -75 -1 -75 -22z"/>
<path d="M4020 1710 l0 -90 75 0 75 0 0 90 0 90 -75 0 -75 0 0 -90z"/>
</g>
</svg>
